<svg height="200px" width="200px" version="1.1" id="Layer_1" xmlns="http://www.w3.org/2000/svg" xmlns:xlink="http://www.w3.org/1999/xlink" viewBox="0 0 512 512" xml:space="preserve" fill="#000000"><g id="SVGRepo_bgCarrier" stroke-width="0"></g><g id="SVGRepo_tracerCarrier" stroke-linecap="round" stroke-linejoin="round"></g><g id="SVGRepo_iconCarrier"> <path style="fill:#A9D0D3;" d="M352.802,361.6c-52.489,0-95.198-42.709-95.198-95.198c0-21.026-14.097-30.601-27.196-30.601 s-27.204,9.574-27.204,30.601c0,51.601-43.597,95.198-95.198,95.198c-52.497,0-95.206-42.709-95.206-95.198v-95.198H448v95.198 C448,318.891,405.291,361.6,352.802,361.6z"></path> <g> <path style="fill:#573A32;" d="M486.4,348.8c0,67.046-54.554,121.6-121.6,121.6s-121.6-54.554-121.6-121.6h-25.6 c0,81.161,66.022,147.2,147.2,147.2S512,429.961,512,348.8V16h-25.6V348.8z"></path> <path style="fill:#573A32;" d="M230.4,248.602c6.647,0,14.396,4.659,14.396,17.801c0,59.554,48.452,107.998,107.998,107.998 S460.8,325.948,460.8,266.402v-95.198c0-7.074-5.726-12.8-12.8-12.8H12.8c-7.074,0-12.8,5.726-12.8,12.8v95.198 C0,325.956,48.452,374.4,107.998,374.4s107.998-48.452,107.998-107.998C215.996,253.261,223.753,248.602,230.4,248.602z M190.396,266.402c0,44.663-37.726,82.398-82.398,82.398c-45.423,0-82.398-36.966-82.398-82.398v-82.398h409.6v82.398 c0,45.44-36.975,82.398-82.398,82.398s-82.398-36.966-82.398-82.398c0-28.484-20.122-43.401-39.996-43.401 S190.396,237.909,190.396,266.402z"></path> </g> </g></svg>